<?xml version="1.0" encoding="utf-8"?>
<!-- Generator: Adobe Illustrator 20.0.0, SVG Export Plug-In . SVG Version: 6.00 Build 0)  -->
<svg version="1.1" id="Layer_1" xmlns="http://www.w3.org/2000/svg" xmlns:xlink="http://www.w3.org/1999/xlink" x="0px" y="0px"
	 viewBox="0 0 254.5 76" style="enable-background:new 0 0 254.5 76;" xml:space="preserve">
<style type="text/css">
	.st0{fill:#E5B53A;}
	.st1{fill:#231F20;}
</style>
<g>
	<path class="st0" d="M119.2,75.4l2.7-3.8c-6.5-1.1-12.9-3.3-18-7.8C93.7,71.9,84.1,76,73.7,76c-7.5,0-18.2-3.2-18.2-12.9
		c0-3,2.6-6.1,5.9-6.1c2.1,0,4.1,1.8,4.1,4.4c0,2.3-1.7,4.2-3.7,4.2c-2.1,0-3.5-1.5-3.5-3.1c0-0.5,0.1-1,0.2-1.4l-0.2-0.2
		c-0.9,0.9-1.2,1.9-1.2,3.3c0,5.2,7.5,10.4,16.6,10.4c10.6,0,21.1-5.3,28.9-11.9c-6.4-6.5-11.4-14.4-11.4-24.9
		c0-10.3,6.7-19.1,15.7-19.1c10.9,0,19,10,21.8,21.1C151.5,19,169,1.5,195.2,0c-22.7,17.5-49,48.1-66.1,70.6c4.7-0.2,9.8-1.8,15-6.2
		l0.7-0.6l0.5,0.7l-0.6,0.5c-5.6,4.6-10.7,6.6-16.6,7l-2.5,3.3H119.2z M92.6,38.2c0,8.5,4.4,16.9,11.3,23.4
		c5.9-4.4,16.3-13.2,23.5-20.6c-2.4-10.6-9.4-19.5-19.7-19.5C100.4,21.5,92.6,28.6,92.6,38.2 M127.7,42.6
		c-6.7,7-17.2,15.8-22.7,20.1c4.4,4.1,11.2,6.3,17.7,7.4c4.3-7.2,5.4-13.7,5.4-18.7C128.1,47.4,128.1,44.6,127.7,42.6 M126.7,64.4
		l0.2,0.2c18.4-23.5,38.9-46.2,63.9-62.9l-0.2-0.2c-23.3,3.1-43.4,23.5-61.7,40.1c0.3,2.4,0.7,4.9,0.7,8.8
		C129.6,54,129.1,59.7,126.7,64.4"/>
	<path class="st1" d="M12.3,48.5l-1.2-2.9H4.5l-0.8,1.5l1.1,2.3h1.1v0.5H0v-0.5c1-0.3,1.9-0.8,2.6-2l6.7-11.8h1.5L16,48
		c0.6,1.4,2.3,1.4,2.9,1.4v0.5H9.5v-0.5h2.1L12.3,48.5z M10.8,44.9l-2.4-5.6c0,0-0.1-0.1-0.2-0.1c-0.1,0-0.2,0-0.2,0.1l-3.1,5.5
		H10.8z"/>
	<path class="st1" d="M22.5,45.1h0.4c1.1,2,2.5,4.6,7.3,4.6c2.6,0,4.7-0.9,4.7-2.5c0-1.9-3.8-2.1-5.9-2.3c-3.9-0.4-6.9-1.3-6.9-4.8
		c0-2.1,1.6-4.4,6.3-4.4c2.9,0,5,1,5.8,1.4l1.6-1.4h0.4v4.4h-0.4c-1-1.7-2.8-3.9-7.3-3.9c-1.7,0-4.2,0.4-4.2,2.3
		c0,1.7,2.3,2.1,6,2.5c3,0.3,6.6,0.7,6.6,4.8c0,3.4-3.4,4.5-7,4.5c-3.3,0-4.6-0.9-5.3-1.4l-1.8,1.4h-0.4V45.1z"/>
	<polygon class="st1" points="46.7,36.5 43.8,36.5 40.8,40.7 40.4,40.7 40.4,36 56.9,36 56.9,40.7 56.5,40.7 53.5,36.5 50.6,36.5 
		50.6,48 52,49.4 54.1,49.4 54.1,49.9 43.2,49.9 43.2,49.4 45.4,49.4 46.7,48 	"/>
	<path class="st1" d="M62.4,37.7L61,36.5h-2.2V36h12.1c2.6,0,6.1,0.4,6.1,3.3c0,2.4-3.3,2.9-5,3.1c-1.4,0.2-1.6,0.2-1.6,0.5
		c0,0.6,1.3,1,3.6,1l1.2,4c0.4,1.2,1.1,1.5,1.4,1.5h1v0.5h-5.6l-1.8-5.6c-0.2-0.6-0.9-1.5-2.4-1.5H66v5.5l1.3,1.1h1.9v0.5H58.8v-0.5
		h2.4l1.2-1.2V37.7z M66,42.3c3.9,0,7.1,0,7.1-3c0-1.4-0.5-2.8-3.2-2.8h-2.5L66,37.7V42.3z"/>
	<path class="st1" d="M92.4,48.5l-1.2-2.9h-6.6l-0.8,1.5l1.1,2.3h1.1v0.5H80v-0.5c1-0.3,2-0.8,2.6-2l6.7-11.8h1.5L96.1,48
		c0.6,1.4,2.3,1.4,2.9,1.4v0.5h-9.4v-0.5h2.1L92.4,48.5z M90.9,44.9l-2.4-5.6c0,0-0.1-0.1-0.2-0.1c-0.1,0-0.1,0-0.2,0.1l-3.1,5.5
		H90.9z"/>
	<polygon class="st1" points="104.2,37.6 103.2,36.5 100.5,36.5 100.5,36 111.8,36 111.8,36.5 109.3,36.5 108.1,37.6 108.1,48.3 
		109.3,49.4 113.3,49.4 116.8,42.7 117.3,42.7 117.3,49.9 100.5,49.9 100.5,49.4 103.4,49.4 104.2,48.3 	"/>
	<path class="st1" d="M133.2,37.7l-1.4-1.2h-1.7V36H142c1.8,0,5.2,0.2,5.2,3c0,1.1-0.7,1.9-1.7,2.4c-1.1,0.6-3,0.8-3,1.1
		c0,0.2,0.2,0.3,0.9,0.5c2.5,0.6,4.6,1.3,4.6,3.5c0,3.4-4.5,3.4-6.4,3.4h-11.5v-0.5h1.9l1.2-1.2V37.7z M137,42.3h3
		c1,0,3.6-0.2,3.6-3c0-2.2-1.6-2.8-3.1-2.8h-2.4l-1.1,1.2V42.3z M137,48.2l1.3,1.2h2.6c2.5,0,3.1-1.9,3.1-3.1c0-1.3-0.6-3.4-3.5-3.4
		H137V48.2z"/>
	<path class="st1" d="M154.9,37.7l-1.4-1.2h-2.2V36h12.2c2.5,0,6.1,0.4,6.1,3.3c0,2.4-3.3,2.9-5,3.1c-1.4,0.2-1.6,0.2-1.6,0.5
		c0,0.6,1.3,1,3.6,1l1.2,4c0.4,1.2,1.1,1.5,1.4,1.5h1v0.5h-5.6l-1.8-5.6c-0.2-0.6-0.9-1.5-2.4-1.5h-1.9v5.5l1.3,1.1h2v0.5h-10.4
		v-0.5h2.4l1.2-1.2V37.7z M158.5,42.3c3.9,0,7.1,0,7.1-3c0-1.4-0.5-2.8-3.2-2.8h-2.5l-1.4,1.1V42.3z"/>
	<path class="st1" d="M184.9,48.5l-1.2-2.9h-6.6l-0.8,1.5l1.1,2.3h1.1v0.5h-5.9v-0.5c1-0.3,2-0.8,2.6-2l6.7-11.8h1.5l5.2,12.3
		c0.6,1.4,2.3,1.4,2.9,1.4v0.5h-9.4v-0.5h2.1L184.9,48.5z M183.4,44.9l-2.4-5.6c0,0-0.1-0.1-0.2-0.1c-0.1,0-0.2,0-0.2,0.1l-3.1,5.5
		H183.4z"/>
	<path class="st1" d="M193,49.4h1.7l2.2-2.7V38c0-0.5,0-1.4-1.3-1.4H193V36h7.7l9.3,10.9v-7.8l-1.9-2.7h-1.9V36h8.3v0.5h-1.5
		l-2.4,2.7v10.7h-3.1l-9.9-11.5h-0.2v8.4l2.3,2.7h1.8v0.5H193V49.4z"/>
	<path class="st1" d="M219.7,37.7l-1.1-1.2h-2V36h10c4.8,0,8.5,1.9,8.5,6.8c0,4.1-3.1,7-7.6,7h-10.9v-0.5h2l1.1-1.3V37.7z
		 M223.6,48.1l1.1,1.3h2.6c3.6,0,3.8-3.7,3.8-6.4c0-2.9-0.4-6.4-4-6.4h-2.3l-1.1,1.2V48.1z"/>
	<path class="st1" d="M240,45.1h0.4c1.1,2,2.5,4.6,7.3,4.6c2.6,0,4.7-0.9,4.7-2.5c0-1.9-3.8-2.1-5.9-2.3c-3.9-0.4-6.9-1.3-6.9-4.8
		c0-2.1,1.6-4.4,6.3-4.4c2.9,0,5,1,5.8,1.4l1.6-1.4h0.4v4.4h-0.4c-1-1.7-2.8-3.9-7.3-3.9c-1.7,0-4.2,0.4-4.2,2.3
		c0,1.7,2.3,2.1,6,2.5c3,0.3,6.6,0.7,6.6,4.8c0,3.4-3.4,4.5-7,4.5c-3.3,0-4.6-0.9-5.3-1.4l-1.8,1.4H240V45.1z"/>
</g>
</svg>
