<svg version="1.1" id="Layer_1" xmlns="http://www.w3.org/2000/svg" xmlns:xlink="http://www.w3.org/1999/xlink" x="0px" y="0px" viewBox="0 0 710 155" style="enable-background:new 0 0 710 155;" xml:space="preserve">
<g id="XMLID_59_">
	<g id="XMLID_60_">
		<path id="XMLID_61_" d="M657.2,139.3L657.2,139.3c0-2.5,2-4.7,4.6-4.7c2.6,0,4.6,2.1,4.6,4.6v0c0,2.5-2,4.6-4.6,4.6C659.3,143.9,657.2,141.8,657.2,139.3z M665.9,139.3L665.9,139.3c0-2.3-1.7-4.1-4.1-4.1c-2.3,0-4.1,1.9-4.1,4.1v0c0,2.2,1.7,4.1,4.1,4.1C664.1,143.4,665.9,141.5,665.9,139.3z M660,136.8h2.1c1,0,1.8,0.5,1.8,1.5c0,0.8-0.4,1.2-1.1,1.4l1.2,1.8H663l-1.1-1.6h-1v1.6H660V136.8z M662.1,139.2c0.6,0,1-0.3,1-0.8c0-0.5-0.3-0.8-1-0.8h-1.1v1.5H662.1z"/>
	</g>
	<g id="XMLID_1_">
		<path id="XMLID_2_" d="M386.1,34.5h-10.5v-3.3h24.6v3.3h-10.5v28.1h-3.6V34.5z"/>
		<path id="XMLID_4_" d="M408.6,31.2h3.5v13.9h18.1V31.2h3.5v31.3h-3.5V48.4h-18.1v14.1h-3.5V31.2z"/>
		<path id="XMLID_6_" d="M444.4,31.2H467v3.2h-19.1v10.7H465v3.2h-17.1v11h19.3v3.2h-22.9V31.2z"/>
		<path id="XMLID_8_" d="M376.4,87.5L376.4,87.5c0-8.9,6.6-16.3,15.8-16.3c5.7,0,9.1,2,12.2,5l-2.4,2.6c-2.6-2.5-5.6-4.3-9.8-4.3c-6.9,0-12.1,5.6-12.1,12.8v0.1c0,7.2,5.2,12.9,12.1,12.9c4.3,0,7.1-1.7,10.1-4.5l2.3,2.3c-3.3,3.3-6.8,5.5-12.5,5.5C383.1,103.6,376.4,96.5,376.4,87.5z"/>
		<path id="XMLID_10_" d="M410.3,87.5L410.3,87.5c0-8.7,6.5-16.3,16-16.3c9.5,0,15.9,7.5,15.9,16.1v0.1c0,8.6-6.5,16.2-16,16.2C416.7,103.6,410.3,96.2,410.3,87.5z M438.6,87.5L438.6,87.5c0-7.2-5.2-13-12.4-13c-7.2,0-12.3,5.7-12.3,12.8v0.1c0,7.1,5.2,12.9,12.3,12.9C433.5,100.4,438.6,94.6,438.6,87.5z"/>
		<path id="XMLID_13_" d="M451.5,71.8h3.6l11.4,17.1l11.4-17.1h3.6v31.3H478V77.7l-11.4,16.8h-0.2L455,77.8v25.3h-3.4V71.8z"/>
		<path id="XMLID_15_" d="M492.2,71.8h11.7c7.1,0,11.7,3.8,11.7,9.9v0.1c0,6.8-5.6,10.2-12.3,10.2h-7.6v11.1h-3.5V71.8z M503.4,88.8c5.2,0,8.6-2.8,8.6-6.9v-0.1c0-4.5-3.4-6.8-8.4-6.8h-7.9v13.8H503.4z"/>
		<path id="XMLID_18_" d="M523.8,71.8h3.5v28.1H545v3.3h-21.2V71.8z"/>
		<path id="XMLID_20_" d="M553.3,71.8H576V75h-19.1v10.7h17.1v3.2h-17.1v11h19.3v3.2h-22.9V71.8z"/>
		<path id="XMLID_22_" d="M594.7,87.1l-11.6-15.3h4.2l9.6,12.8l9.5-12.8h4.1L599,87.1l12,16h-4.2l-10-13.5l-10,13.5h-4.1L594.7,87.1z"/>
		<path id="XMLID_24_" d="M619.6,71.8h3.5v31.3h-3.5V71.8z"/>
		<path id="XMLID_26_" d="M632.7,87.5L632.7,87.5c0-8.7,6.5-16.3,16-16.3c9.5,0,15.9,7.5,15.9,16.1v0.1c0,8.6-6.5,16.2-16,16.2C639.1,103.6,632.7,96.2,632.7,87.5z M661,87.5L661,87.5c0-7.2-5.2-13-12.4-13c-7.2,0-12.3,5.7-12.3,12.8v0.1c0,7.1,5.2,12.9,12.3,12.9S661,94.6,661,87.5z"/>
		<path id="XMLID_29_" d="M673.9,71.8h3.3L697,96.9V71.8h3.4v31.3h-2.8l-20.2-25.7v25.7h-3.4V71.8z"/>
		<path id="XMLID_31_" d="M389.4,112.1h3.3l14.3,31.5h-3.8l-3.7-8.3h-17l-3.7,8.3h-3.6L389.4,112.1z M398.1,132.2l-7.1-16l-7.2,16H398.1z"/>
		<path id="XMLID_34_" d="M413.3,130.6v-18.2h3.5v18c0,6.8,3.6,10.6,9.6,10.6c5.8,0,9.4-3.5,9.4-10.3v-18.2h3.5v17.9c0,9.1-5.2,13.9-13.1,13.9C418.6,144.2,413.3,139.4,413.3,130.6z"/>
		<path id="XMLID_36_" d="M457.8,115.6h-10.5v-3.3h24.6v3.3h-10.5v28.1h-3.6V115.6z"/>
		<path id="XMLID_38_" d="M480.3,112.4h3.5v13.9H502v-13.9h3.5v31.3H502v-14.1h-18.1v14.1h-3.5V112.4z"/>
		<path id="XMLID_40_" d="M514.7,128.1L514.7,128.1c0-8.7,6.5-16.3,16-16.3c9.5,0,15.9,7.5,15.9,16.1v0.1c0,8.6-6.5,16.2-16,16.2C521.1,144.2,514.7,136.7,514.7,128.1z M543,128.1L543,128.1c0-7.2-5.2-13-12.4-13s-12.3,5.7-12.3,12.8v0.1c0,7.1,5.2,12.9,12.3,12.9C537.9,140.9,543,135.2,543,128.1z"/>
		<path id="XMLID_43_" d="M556,112.4h13.5c3.8,0,6.9,1.2,8.9,3.1c1.5,1.5,2.4,3.7,2.4,6.2v0.1c0,5.2-3.6,8.2-8.5,9.1l9.6,12.8h-4.3l-9.1-12.2h-8.9v12.2H556V112.4z M569.1,128.3c4.7,0,8.1-2.4,8.1-6.4v-0.1c0-3.8-3-6.2-8-6.2h-9.7v12.7H569.1z"/>
		<path id="XMLID_46_" d="M590.4,112.4h3.5v31.3h-3.5V112.4z"/>
		<path id="XMLID_48_" d="M613.2,115.6h-10.5v-3.3h24.6v3.3h-10.5v28.1h-3.6V115.6z"/>
		<path id="XMLID_50_" d="M645.5,131.3l-13-18.9h4.3l10.6,15.7l10.6-15.7h4.1l-13,18.9v12.4h-3.6V131.3z"/>
	</g>
	<path id="XMLID_52_" d="M80.1,42.9c-7.3-7.4-17.4-11.7-27.8-11.7H7.3c-1.4,0-2.6,1.1-2.6,2.6v107.4c0,1.4,1.1,2.6,2.6,2.6h5.3c1.4,0,2.6-1.1,2.6-2.6l0.1-98.5c0-0.6,0.5-1,1-1l36,0c13.4,0,25.3,9.2,27.8,22.3c1.7,9-1,17.9-7.4,24.3c-5.3,5.4-12.7,8.5-20.2,8.5H37.6c-1.4,0-2.6,1.1-2.6,2.6v5.3c0,1.4,1.1,2.6,2.6,2.6H53c20.6,0,37.7-16.8,38-37.4C91.2,59.8,87.3,50.2,80.1,42.9z"/>
	<g id="XMLID_53_">
		<path id="XMLID_54_" d="M200.8,31.2h-5.3c-1.4,0-2.6,1.1-2.6,2.6V104c0,9.4-3.9,18.6-10.6,25.2c-6.6,6.5-15.3,10-24.5,9.9c-18.7-0.3-33.9-15.8-33.9-34.5V33.7c0-1.4-1.1-2.6-2.6-2.6h-5.3c-1.4,0-2.6,1.1-2.6,2.6v70.1c0,24.7,19.8,45.2,44,45.6c0.3,0,0.6,0,0.9,0c11.8,0,23-4.6,31.4-12.9c8.7-8.5,13.5-19.9,13.5-32V33.7C203.4,32.3,202.2,31.2,200.8,31.2z"/>
		<ellipse id="XMLID_55_" cx="118.8" cy="10.4" rx="6.1" ry="6.1"/>
		<ellipse id="XMLID_56_" cx="198.1" cy="10.4" rx="6.1" ry="6.1"/>
	</g>
	<path id="XMLID_57_" d="M324.9,141.4c-5.6-6.4-17-19.6-23.8-27.6c-2.7-3.2-5.7-6-8.9-8.4c-0.1,0,0-0.1,0-0.2
		c15.5-5.3,26-20,25.8-36.5c-0.2-20.7-17.6-37.6-38.7-37.6h-45.1c-1.4,0-2.6,1.1-2.6,2.6v107.4c0,1.4,1.1,2.6,2.6,2.6h5.4c1.4,0,2.6-1.1,2.6-2.6l0-98.5c0-0.6,0.5-1,1-1l36,0c13.3,0,25.2,9.2,27.8,22.3c1.8,9-1,17.9-7.4,24.4c-5.3,5.4-12.7,8.5-20.2,8.5h-14.8c-1.4,0-2.6,1.2-2.6,2.6v5.3c0,1.4,1.1,2.6,2.6,2.6h4.1c8.1,0,17.4,5.1,24.3,13.3c5.3,6.3,13.4,15.7,19.1,22.2c0.5,0.6,1.2,0.9,1.9,0.9h9.7c0.5,0,1-0.3,1.3-0.8C325.3,142.4,325.3,141.8,324.9,141.4z"/>
	<path d="M331.3,136.4h-2.7v-1.1h6.5v1.1h-2.7v7.1h-1.2V136.4z M337,135.3h1.3l3,4.5l2.9-4.5h1.2v8.3h-1.2v-6.3l-3,4.5h-0.2l-2.9-4.5v6.3H337V135.3z"/>
</g>
</svg>
