<?xml version="1.0" encoding="utf-8"?>
<!-- Generator: Adobe Illustrator 20.1.0, SVG Export Plug-In . SVG Version: 6.00 Build 0)  -->
<svg version="1.1" id="Layer_1" xmlns="http://www.w3.org/2000/svg" xmlns:xlink="http://www.w3.org/1999/xlink" x="0px" y="0px"
	 viewBox="0 0 139.7 76" style="enable-background:new 0 0 139.7 76;" xml:space="preserve">
<path d="M63.7,75.4l2.7-3.8c-6.5-1.1-12.9-3.3-18-7.8C38.2,71.9,28.6,76,18.2,76C10.7,76,0,72.8,0,63.1c0-3,2.6-6.1,5.9-6.1
	C8,57,10,58.8,10,61.4c0,2.3-1.7,4.2-3.7,4.2c-2.1,0-3.5-1.5-3.5-3.1c0-0.5,0.1-1,0.2-1.4l-0.2-0.2c-0.9,0.9-1.2,1.9-1.2,3.3
	c0,5.2,7.5,10.4,16.6,10.4c10.6,0,21.1-5.3,28.9-11.9c-6.4-6.5-11.4-14.4-11.4-24.9c0-10.3,6.7-19.1,15.7-19.1
	c10.9,0,19,10,21.8,21.1C96,19,113.5,1.5,139.7,0c-22.7,17.5-49,48.1-66.1,70.6c4.7-0.2,9.8-1.8,15-6.2l0.7-0.6l0.5,0.7L89.2,65
	c-5.6,4.6-10.7,6.6-16.6,7l-2.5,3.3L63.7,75.4L63.7,75.4z M37.1,38.2c0,8.5,4.4,16.9,11.3,23.4c5.9-4.4,16.3-13.2,23.5-20.6
	c-2.4-10.6-9.4-19.5-19.7-19.5C44.9,21.5,37.1,28.6,37.1,38.2 M72.2,42.6c-6.7,7-17.2,15.8-22.7,20.1c4.4,4.1,11.2,6.3,17.7,7.4
	c4.3-7.2,5.4-13.7,5.4-18.7C72.6,47.4,72.6,44.6,72.2,42.6 M71.2,64.4l0.2,0.2c18.4-23.5,38.9-46.2,63.9-62.9l-0.2-0.2
	C111.8,4.6,91.7,25,73.4,41.6c0.3,2.4,0.7,4.9,0.7,8.8C74.1,54,73.6,59.7,71.2,64.4"/>
</svg>
