<svg id="logo_cosmedix" data-name="COSMEDIX" xmlns="http://www.w3.org/2000/svg" viewBox="0 0 242.6 22.8"><style type="text/css">.st0{fill:#8C8B8C;}</style><polygon class="st0" points="112,1.9 105.4,15.2 98.9,2 98.8,1.9 96.2,1.9 96.2,21.2 98.8,21.2 98.8,7.9 105.4,21.3 111.9,7.9 111.9,21.2 114.6,21.2 114.6,1.9 "/><path class="st0" d="M17.3,16.3l-0.2-0.1L17,16.3c-1.6,1.6-3.3,2.6-5.8,2.6c-3.9,0-6.9-3.3-6.9-7.5c0-4.2,3-7.4,6.9-7.4c2.7,0,4.4,1.3,5.7,2.5L17,6.8L18.7,5l0.1-0.2l-0.2-0.1C17,3,14.9,1.5,11.2,1.5c-5.5,0-9.7,4.3-9.7,10c0,5.7,4.1,9.9,9.6,9.9c3.8,0,6-1.7,7.7-3.4l0.2-0.2L17.3,16.3z"/><path class="st0" d="M42.1,1.5c-5.5,0-9.8,4.4-9.8,10c0,5.7,4.2,9.9,9.8,9.9c5.5,0,9.8-4.4,9.8-10C51.9,5.8,47.7,1.5,42.1,1.5z M42.1,18.9c-4,0-7-3.2-7-7.5c0-4.2,3-7.4,7-7.4c4,0,7,3.2,7,7.4C49.1,15.8,46.1,18.9,42.1,18.9z"/><path class="st0" d="M74.5,10.2c-4.1-0.9-4.8-1.8-4.8-3.4c0-1.6,1.5-2.7,3.7-2.7c1.9,0,3.6,0.6,5.3,2l0.2,0.1l1.4-1.9l0.1-0.2L80.1,4c-2-1.7-4.1-2.4-6.7-2.4C69.7,1.6,67,3.9,67,7c0,3.1,1.8,4.7,6.5,5.7c3.9,0.8,4.6,1.8,4.6,3.3c0,1.7-1.5,2.9-3.9,2.9c-2.4,0-4.2-0.7-6.2-2.6l-0.2-0.2L66.2,18l-0.1,0.2l0.2,0.1c2.3,2.1,4.8,3.1,7.8,3.1c4,0,6.7-2.3,6.7-5.6C80.8,12.9,78.9,11.2,74.5,10.2z"/><polygon class="st0" points="134.2,18.6 134.2,12.7 144.4,12.7 144.4,10.2 134.2,10.2 134.2,4.4 145.6,4.4 145.6,1.9 131.5,1.9 131.5,21.2 145.7,21.2 145.7,18.6"/><path class="st0" d="M169.4,1.9h-6.8v19.3h6.8c5.9,0,10.2-4.1,10.2-9.7C179.6,5.9,175.3,1.9,169.4,1.9z M169.4,18.6h-4.1V4.4h4.1c4.4,0,7.4,2.9,7.4,7.1C176.9,15.7,173.8,18.6,169.4,18.6z"/><rect x="197" y="1.9" class="st0" width="2.7" height="19.3"/><polygon class="st0" points="226.8,11.3 233.9,1.9 230.6,2 225.2,9.3 219.5,1.9 216.4,1.9 223.5,11.3 216.1,21.2 219.4,21.1 225.1,13.3 230.8,21.1 234.2,21.2"/><path class="st0" d="M239.4,15.8c1.4,0,2.6,1.1,2.6,2.6c0,1.5-1.2,2.6-2.6,2.6c-1.4,0-2.6-1.1-2.6-2.6
	C236.8,16.9,238,15.8,239.4,15.8z M239.4,20.6c1.2,0,2.1-1,2.1-2.2c0-1.2-0.9-2.2-2.1-2.2c-1.2,0-2.1,1-2.1,2.2C237.3,19.6,238.2,20.6,239.4,20.6z M238.4,16.8h1.2c0.7,0,1.1,0.3,1.1,0.9c0,0.5-0.3,0.8-0.8,0.8l0.9,1.3h-0.5l-0.8-1.3h-0.5v1.3h-0.5V16.8z M238.9,18.2h0.5c0.4,0,0.8,0,0.8-0.5c0-0.4-0.3-0.5-0.7-0.5h-0.6V18.2z"/></svg>
