<svg id="logo_pur" data-name="PUR Cosmetics" xmlns="http://www.w3.org/2000/svg" viewBox="0 0 553 236"><defs><style>.PUR{fill:#231f20;}</style></defs><title>PUR Logo</title><path class="PUR" d="M541,221h-4v-2h11v2h-4v12h-2Zm9-2h2l5,7,5-7h2v13h-2V222l-5,7h0l-5-7v10h-2Z" transform="translate(-10 -6)"/><path class="PUR" d="M133,69A64,64,0,0,0,88,50H15a4,4,0,0,0-4,4V228a4,4,0,0,0,4,4h9a4,4,0,0,0,4-4V69l2-2H88c22,0,41,15,45,36a44,44,0,0,1-12,40,46,46,0,0,1-33,14H64a4,4,0,0,0-4,4v9a4,4,0,0,0,4,4H89a62,62,0,0,0,62-61A61,61,0,0,0,133,69Z" transform="translate(-10 -6)"/><path class="PUR" d="M329,50h-9a4,4,0,0,0-4,4V168a58,58,0,0,1-17,41,55,55,0,0,1-40,16,56,56,0,0,1-55-56V54a4,4,0,0,0-4-4h-9a4,4,0,0,0-4,4V168c0,40,32,73,71,74h1a73,73,0,0,0,73-73V54A4,4,0,0,0,329,50Z" transform="translate(-10 -6)"/><path class="PUR" d="M196,26a10,10,0,1,0-10-10A10,10,0,0,0,196,26Z" transform="translate(-10 -6)"/><path class="PUR" d="M324,26a10,10,0,1,0-10-10A10,10,0,0,0,324,26Z" transform="translate(-10 -6)"/><path class="PUR" d="M530,229l-39-45a87,87,0,0,0-14-14h0a62,62,0,0,0,42-59c0-34-29-61-63-61H383a4,4,0,0,0-4,4V228a4,4,0,0,0,4,4h9a4,4,0,0,0,4-4V69l2-2h58c22,0,41,15,45,36a44,44,0,0,1-12,40,46,46,0,0,1-33,14H433a4,4,0,0,0-4,4v9a4,4,0,0,0,4,4h7c13,0,28,8,39,22l31,36h21A2,2,0,0,0,530,229Z" transform="translate(-10 -6)"/></svg>