<svg id="logo_aloette" data-name="Aloette Cosmetics" xmlns="http://www.w3.org/2000/svg" viewBox="0 0 387.5 59"><defs><style>.color{fill:#222;}</style></defs><title>Aloette Logo</title><path class="color" d="M15.8,38.6l-5.2,15.8H3.9L21.6,4.2h7.8l17.8,50.2h-6.9l-5.4-15.8H15.8z M32.9,33.5l-5-14.4c-1-3.3-1.8-6.2-2.5-9.2h-0.2c-0.7,2.9-1.5,6-2.5,9.1l-4.9,14.5H32.9z"/><path class="color" d="M61.7,4.2h6.6v44.1h25.4v6.1H61.7V4.2z"/><path class="color" d="M130.2,56c-14.2,0-24-10.3-24-25.5c0-15.9,10.4-26.3,24.7-26.3c14.6,0,24,10.5,24,25.4C154.9,46.8,143.8,56,130.2,56L130.2,56z M130.5,50.7c10.9,0,17.1-9.5,17.1-20.8c0-10-5.5-20.4-17-20.4c-11.5,0-17.2,10-17.2,20.9C113.4,41,119.6,50.7,130.5,50.7L130.5,50.7z"/><path class="color" d="M290.4,10.4h-16.6V4.2h39.8v6.2h-16.6v44h-6.6V10.4z"/><path class="color" d="M238.9,10.4h-16.6V4.2h39.8v6.2h-16.6v44h-6.6V10.4z"/><path class="color" d="M362.9,31.5h-25.2v16.8h28.2v6.1h-36.7V4.2h35.2v6.1h-26.7v15.2h25.2V31.5z"/><path class="color" d="M205.9,31.5h-25.2v16.8h28.2v6.1h-36.7V4.2h35.2v6.1h-26.7v15.2h25.2V31.5z"/><path class="color" d="M375.3,7.2c0.6-0.1,1.5-0.2,2.3-0.2c1.3,0,2.1,0.2,2.7,0.6c0.5,0.3,0.7,0.8,0.7,1.4c0,1-0.8,1.6-1.7,1.9v0c0.7,0.2,1.1,0.7,1.4,1.5c0.3,1,0.5,1.8,0.7,2h-1.2c-0.2-0.2-0.4-0.9-0.6-1.8c-0.3-1-0.8-1.4-1.9-1.4h-1.1v3.2h-1.2V7.2z M376.5,10.5h1.2c1.3,0,2.1-0.6,2.1-1.4c0-1-0.9-1.4-2.1-1.4c-0.6,0-1,0-1.2,0.1V10.5z"/><path class="color" d="M371.3,10.7c0-3.9,3.2-7,7-7l0,0c3.9,0,7,3.2,7,7l0,0c0,3.9-3.2,7-7,7l0,0C374.4,17.8,371.3,14.6,371.3,10.7L371.3,10.7z M372.3,10.7c0,3.3,2.7,6,6,6l0,0c3.3,0,6-2.7,6-6l0,0c0-3.3-2.7-6-6-6l0,0C375,4.8,372.3,7.4,372.3,10.7L372.3,10.7z"/></svg>
